<!DOCTYPE svg PUBLIC "-//W3C//DTD SVG 1.1//EN" "http://www.w3.org/Graphics/SVG/1.1/DTD/svg11.dtd">
<!-- Uploaded to: SVG Repo, www.svgrepo.com, Transformed by: SVG Repo Mixer Tools -->
<svg fill="#ffffff" version="1.1" id="Layer_1" xmlns:x="&amp;ns_extend;" xmlns:i="&amp;ns_ai;" xmlns:graph="&amp;ns_graphs;" xmlns="http://www.w3.org/2000/svg" xmlns:xlink="http://www.w3.org/1999/xlink" width="800px" height="800px" viewBox="0 0 24 24" enable-background="new 0 0 24 24" xml:space="preserve" stroke="#ffffff">
<g id="SVGRepo_bgCarrier" stroke-width="0"/>
<g id="SVGRepo_tracerCarrier" stroke-linecap="round" stroke-linejoin="round"/>
<g id="SVGRepo_iconCarrier"> <metadata> <sfw> <slices> </slices> <slicesourcebounds width="505" height="984" bottomleftorigin="true" x="0" y="-552"> </slicesourcebounds> </sfw> </metadata> <g> <g> <g> <path d="M12,10c-0.1,0-0.2,0-0.3-0.1l-11-4C0.3,5.8,0,5.4,0,5s0.3-0.8,0.7-0.9l11-4c0.2-0.1,0.5-0.1,0.7,0l11,4 C23.7,4.2,24,4.6,24,5s-0.3,0.8-0.7,0.9l-11,4C12.2,10,12.1,10,12,10z M3.9,5L12,7.9L20.1,5L12,2.1L3.9,5z"/> </g> </g> <g> <g> <path d="M12,24c-0.1,0-0.2,0-0.3-0.1l-11-4c-0.5-0.2-0.8-0.8-0.6-1.3c0.2-0.5,0.8-0.8,1.3-0.6L12,21.9l10.7-3.9 c0.5-0.2,1.1,0.1,1.3,0.6c0.2,0.5-0.1,1.1-0.6,1.3l-11,4C12.2,24,12.1,24,12,24z"/> </g> </g> <g> <g> <path d="M12,24c-0.6,0-1-0.4-1-1V9c0-0.6,0.4-1,1-1s1,0.4,1,1v14C13,23.6,12.6,24,12,24z"/> </g> </g> <g> <g> <path d="M23,20c-0.6,0-1-0.4-1-1V5c0-0.6,0.4-1,1-1s1,0.4,1,1v14C24,19.6,23.6,20,23,20z"/> </g> </g> <g> <g> <path d="M1,20c-0.6,0-1-0.4-1-1V5c0-0.6,0.4-1,1-1s1,0.4,1,1v14C2,19.6,1.6,20,1,20z"/> </g> </g> </g> </g>
</svg>